<svg width="44" height="44" viewBox="0 0 44 44" fill="none" xmlns="http://www.w3.org/2000/svg">
    <path d="M2.79093 0.182487C1.40492 0.315502 0.315526 1.40488 0.1825 2.79089C-0.208723 6.86709 0.118761 10.6323 0.333046 12.4225C0.415649 13.1126 0.852265 13.7127 1.5306 13.8642C2.1288 13.9977 2.92932 14.0776 3.78735 13.8866C4.46577 13.7355 4.89942 13.1127 4.98399 12.4228C5.24448 10.2977 5.3295 7.8356 5.35725 6.45479C5.3693 5.85501 5.85511 5.3692 6.45489 5.35714C7.83568 5.3294 10.2978 5.24439 12.4228 4.98394C13.1127 4.89939 13.7355 4.46574 13.8866 3.78729C14.0776 2.92928 13.9977 2.12877 13.8642 1.53058C13.7127 0.852234 13.1126 0.415614 12.4225 0.333016C10.6322 0.118748 6.86713 -0.208705 2.79093 0.182487Z" fill="#576684"/>
    <path d="M41.2091 0.182487C42.5951 0.315502 43.6845 1.40488 43.8175 2.79089C44.2087 6.86709 43.8812 10.6323 43.667 12.4225C43.5844 13.1126 43.1477 13.7127 42.4694 13.8642C41.8712 13.9977 41.0707 14.0776 40.2127 13.8866C39.5342 13.7355 39.1006 13.1127 39.016 12.4228C38.7555 10.2977 38.6705 7.8356 38.6428 6.45479C38.6307 5.85501 38.1449 5.3692 37.5451 5.35714C36.1643 5.3294 33.7022 5.24439 31.5772 4.98394C30.8873 4.89939 30.2645 4.46574 30.1134 3.78729C29.9224 2.92928 30.0023 2.12877 30.1358 1.53058C30.2873 0.852234 30.8874 0.415614 31.5775 0.333016C33.3678 0.118748 37.1329 -0.208705 41.2091 0.182487Z" fill="#576684"/>
    <path d="M43.8175 41.2091C43.6845 42.5951 42.5951 43.6845 41.2091 43.8175C37.1329 44.2087 33.3678 43.8813 31.5775 43.667C30.8874 43.5844 30.2873 43.1478 30.1358 42.4694C30.0023 41.8712 29.9224 41.0707 30.1134 40.2127C30.2645 39.5343 30.8873 39.1006 31.5772 39.0161C33.7022 38.7556 36.1643 38.6706 37.5451 38.6429C38.1449 38.6308 38.6307 38.145 38.6428 37.5452C38.6705 36.1644 38.7555 33.7023 39.016 31.5772C39.1006 30.8873 39.5342 30.2645 40.2127 30.1134C41.0707 29.9224 41.8712 30.0023 42.4694 30.1358C43.1477 30.2873 43.5844 30.8874 43.667 31.5775C43.8812 33.3677 44.2087 37.1329 43.8175 41.2091Z" fill="#576684"/>
    <path d="M2.79093 43.8175C1.40492 43.6845 0.315526 42.5951 0.1825 41.2091C-0.208723 37.1329 0.118761 33.3677 0.333046 31.5775C0.415649 30.8874 0.852264 30.2873 1.5306 30.1358C2.12879 30.0023 2.92932 29.9224 3.78735 30.1134C4.46577 30.2645 4.89942 30.8873 4.98398 31.5772C5.24448 33.7023 5.3295 36.1644 5.35725 37.5452C5.3693 38.145 5.85511 38.6308 6.45489 38.6429C7.83568 38.6706 10.2978 38.7556 12.4228 39.0161C13.1127 39.1006 13.7355 39.5343 13.8866 40.2127C14.0776 41.0707 13.9977 41.8712 13.8642 42.4694C13.7127 43.1478 13.1126 43.5844 12.4225 43.667C10.6322 43.8813 6.86713 44.2087 2.79093 43.8175Z" fill="#576684"/>
    <path d="M8 22C8 29.732 14.268 36 22 36C29.732 36 36 29.732 36 22C36 14.268 29.732 8 22 8C14.268 8 8 14.268 8 22Z" fill="#ACB4C9"/>
    <path fill-rule="evenodd" clip-rule="evenodd" d="M18 18C18 19.1046 17.1046 20 16 20C14.8954 20 14 19.1046 14 18C14 16.8954 14.8954 16 16 16C17.1046 16 18 16.8954 18 18ZM18 24C18.8284 24 19.5 24.6716 19.5 25.5C19.5 26.8807 20.6193 28 22 28C23.3807 28 24.5 26.8807 24.5 25.5C24.5 24.6716 25.1716 24 26 24C26.8284 24 27.5 24.6716 27.5 25.5C27.5 28.5376 25.0376 31 22 31C18.9624 31 16.5 28.5376 16.5 25.5C16.5 24.6716 17.1716 24 18 24ZM28 20C26.8954 20 26 19.1046 26 18C26 16.8954 26.8954 16 28 16C29.1046 16 30 16.8954 30 18C30 19.1046 29.1046 20 28 20Z" fill="#576684"/>
</svg>
